<svg xmlns="http://www.w3.org/2000/svg" xmlns:xlink="http://www.w3.org/1999/xlink" contentStyleType="text/css" data-diagram-type="CLASS" height="833px" preserveAspectRatio="none" style="width:612px;height:833px;background:#FFFFFF;" version="1.1" viewBox="0 0 612 833" width="612px" zoomAndPan="magnify"><defs/><g><!--class ListInfoMap--><g class="entity" data-entity="ListInfoMap" data-source-line="2" data-uid="ent0002" id="entity_ListInfoMap"><rect fill="#F1F1F1" height="146.9297" rx="2.5" ry="2.5" style="stroke:#181818;stroke-width:0.5;" width="297.373" x="220.48" y="7"/><ellipse cx="325.439" cy="23" fill="#ADD1B2" rx="11" ry="11" style="stroke:#181818;stroke-width:1;"/><path d="M327.9121,29.1431 Q327.3311,29.4419 326.6919,29.5913 Q326.0528,29.7407 325.3472,29.7407 Q322.8404,29.7407 321.5205,28.0889 Q320.2007,26.437 320.2007,23.3159 Q320.2007,20.1865 321.5205,18.5347 Q322.8404,16.8828 325.3472,16.8828 Q326.0528,16.8828 326.7002,17.0322 Q327.3477,17.1816 327.9121,17.4805 L327.9121,20.2031 Q327.2813,19.6221 326.6878,19.3523 Q326.0943,19.0825 325.4634,19.0825 Q324.1187,19.0825 323.4339,20.1492 Q322.749,21.2158 322.749,23.3159 Q322.749,25.4077 323.4339,26.4744 Q324.1187,27.541 325.4634,27.541 Q326.0943,27.541 326.6878,27.2712 Q327.2813,27.0015 327.9121,26.4204 Z " fill="#000000"/><text fill="#000000" font-family="sans-serif" font-size="14" lengthAdjust="spacing" textLength="78.9551" x="345.939" y="28.291">ListInfoMap</text><line style="stroke:#181818;stroke-width:0.5;" x1="221.48" x2="516.853" y1="39" y2="39"/><ellipse cx="231.48" cy="52.7441" fill="none" rx="3" ry="3" style="stroke:#038048;stroke-width:1;"/><text fill="#000000" font-family="sans-serif" font-size="14" lengthAdjust="spacing" textLength="155.8047" x="240.48" y="56.5352">map[fileName]*ListInfo</text><line style="stroke:#181818;stroke-width:0.5;" x1="221.48" x2="516.853" y1="63.4883" y2="63.4883"/><ellipse cx="231.48" cy="77.2324" fill="#84BE84" rx="3" ry="3" style="stroke:#038048;stroke-width:1;"/><text fill="#000000" font-family="sans-serif" font-size="14" lengthAdjust="spacing" textLength="174.7061" x="240.48" y="81.0234">Marshal(path string) error</text><ellipse cx="231.48" cy="93.7207" fill="#84BE84" rx="3" ry="3" style="stroke:#038048;stroke-width:1;"/><text fill="#000000" font-family="sans-serif" font-size="14" lengthAdjust="spacing" textLength="271.373" x="240.48" y="97.5117">FlattenAndGenUniqueDomainList() error</text><ellipse cx="231.48" cy="110.209" fill="#84BE84" rx="3" ry="3" style="stroke:#038048;stroke-width:1;"/><text fill="#000000" font-family="sans-serif" font-size="14" lengthAdjust="spacing" textLength="75.749" x="240.48" y="114">ToProto(...)</text><ellipse cx="231.48" cy="126.6973" fill="#84BE84" rx="3" ry="3" style="stroke:#038048;stroke-width:1;"/><text fill="#000000" font-family="sans-serif" font-size="14" lengthAdjust="spacing" textLength="102.5732" x="240.48" y="130.4883">ToPlainText(...)</text><ellipse cx="231.48" cy="143.1855" fill="#84BE84" rx="3" ry="3" style="stroke:#038048;stroke-width:1;"/><text fill="#000000" font-family="sans-serif" font-size="14" lengthAdjust="spacing" textLength="93.3311" x="240.48" y="146.9766">ToGFWList(...)</text></g><!--class ListInfo--><g class="entity" data-entity="ListInfo" data-source-line="11" data-uid="ent0003" id="entity_ListInfo"><rect fill="#F1F1F1" height="278.8359" rx="2.5" ry="2.5" style="stroke:#181818;stroke-width:0.5;" width="406.5703" x="7.89" y="230.93"/><ellipse cx="181.7484" cy="246.93" fill="#ADD1B2" rx="11" ry="11" style="stroke:#181818;stroke-width:1;"/><path d="M184.2215,253.0731 Q183.6405,253.3719 183.0013,253.5213 Q182.3622,253.6707 181.6566,253.6707 Q179.1498,253.6707 177.8299,252.0189 Q176.5101,250.367 176.5101,247.2459 Q176.5101,244.1165 177.8299,242.4647 Q179.1498,240.8128 181.6566,240.8128 Q182.3622,240.8128 183.0096,240.9622 Q183.6571,241.1116 184.2215,241.4105 L184.2215,244.1331 Q183.5907,243.5521 182.9972,243.2823 Q182.4037,243.0125 181.7728,243.0125 Q180.4281,243.0125 179.7433,244.0792 Q179.0585,245.1458 179.0585,247.2459 Q179.0585,249.3377 179.7433,250.4044 Q180.4281,251.471 181.7728,251.471 Q182.4037,251.471 182.9972,251.2012 Q183.5907,250.9315 184.2215,250.3504 Z " fill="#000000"/><text fill="#000000" font-family="sans-serif" font-size="14" lengthAdjust="spacing" textLength="50.3535" x="202.2484" y="252.221">ListInfo</text><line style="stroke:#181818;stroke-width:0.5;" x1="8.89" x2="413.4603" y1="262.93" y2="262.93"/><ellipse cx="18.89" cy="276.6741" fill="none" rx="3" ry="3" style="stroke:#038048;stroke-width:1;"/><text fill="#000000" font-family="sans-serif" font-size="14" lengthAdjust="spacing" textLength="103.3594" x="27.89" y="280.4652">Name fileName</text><ellipse cx="18.89" cy="293.1624" fill="none" rx="3" ry="3" style="stroke:#038048;stroke-width:1;"/><text fill="#000000" font-family="sans-serif" font-size="14" lengthAdjust="spacing" textLength="80.9512" x="27.89" y="296.9534">FullTypeList</text><ellipse cx="18.89" cy="309.6507" fill="none" rx="3" ry="3" style="stroke:#038048;stroke-width:1;"/><text fill="#000000" font-family="sans-serif" font-size="14" lengthAdjust="spacing" textLength="162.3877" x="27.89" y="313.4417">DomainTypeList []string</text><ellipse cx="18.89" cy="326.139" fill="none" rx="3" ry="3" style="stroke:#038048;stroke-width:1;"/><text fill="#000000" font-family="sans-serif" font-size="14" lengthAdjust="spacing" textLength="210.123" x="27.89" y="329.93">DomainTypeUniqueList []string</text><ellipse cx="18.89" cy="342.6273" fill="none" rx="3" ry="3" style="stroke:#038048;stroke-width:1;"/><text fill="#000000" font-family="sans-serif" font-size="14" lengthAdjust="spacing" textLength="114.8438" x="27.89" y="346.4183">KeywordTypeList</text><ellipse cx="18.89" cy="359.1155" fill="none" rx="3" ry="3" style="stroke:#038048;stroke-width:1;"/><text fill="#000000" font-family="sans-serif" font-size="14" lengthAdjust="spacing" textLength="107.2422" x="27.89" y="362.9066">RegexpTypeList</text><ellipse cx="18.89" cy="375.6038" fill="none" rx="3" ry="3" style="stroke:#038048;stroke-width:1;"/><text fill="#000000" font-family="sans-serif" font-size="14" lengthAdjust="spacing" textLength="263.5254" x="27.89" y="379.3948">AttributeRuleListMap map[string][]Rule</text><ellipse cx="18.89" cy="392.0921" fill="none" rx="3" ry="3" style="stroke:#038048;stroke-width:1;"/><text fill="#000000" font-family="sans-serif" font-size="14" lengthAdjust="spacing" textLength="380.5703" x="27.89" y="395.8831">InclusionAttributeMap map[fileName]map[attribute]bool</text><ellipse cx="18.89" cy="408.5804" fill="none" rx="3" ry="3" style="stroke:#038048;stroke-width:1;"/><text fill="#000000" font-family="sans-serif" font-size="14" lengthAdjust="spacing" textLength="51.1396" x="27.89" y="412.3714">GeoSite</text><line style="stroke:#181818;stroke-width:0.5;" x1="8.89" x2="413.4603" y1="419.3245" y2="419.3245"/><ellipse cx="18.89" cy="433.0687" fill="#84BE84" rx="3" ry="3" style="stroke:#038048;stroke-width:1;"/><text fill="#000000" font-family="sans-serif" font-size="14" lengthAdjust="spacing" textLength="143.3564" x="27.89" y="436.8597">ProcessList(file) error</text><ellipse cx="18.89" cy="449.557" fill="#84BE84" rx="3" ry="3" style="stroke:#038048;stroke-width:1;"/><text fill="#000000" font-family="sans-serif" font-size="14" lengthAdjust="spacing" textLength="200.6143" x="27.89" y="453.348">Flatten(lm *ListInfoMap) error</text><ellipse cx="18.89" cy="466.0452" fill="#84BE84" rx="3" ry="3" style="stroke:#038048;stroke-width:1;"/><text fill="#000000" font-family="sans-serif" font-size="14" lengthAdjust="spacing" textLength="90.9863" x="27.89" y="469.8363">ToGeoSite(...)</text><ellipse cx="18.89" cy="482.5335" fill="#84BE84" rx="3" ry="3" style="stroke:#038048;stroke-width:1;"/><text fill="#000000" font-family="sans-serif" font-size="14" lengthAdjust="spacing" textLength="131.9814" x="27.89" y="486.3245">ToPlainText() []byte</text><ellipse cx="18.89" cy="499.0218" fill="#84BE84" rx="3" ry="3" style="stroke:#038048;stroke-width:1;"/><text fill="#000000" font-family="sans-serif" font-size="14" lengthAdjust="spacing" textLength="122.7393" x="27.89" y="502.8128">ToGFWList() []byte</text></g><!--class DomainTrie--><g class="entity" data-entity="DomainTrie" data-source-line="28" data-uid="ent0004" id="entity_DomainTrie"><rect fill="#F1F1F1" height="97.4648" rx="2.5" ry="2.5" style="stroke:#181818;stroke-width:0.5;" width="203.1602" x="7.59" y="586.77"/><ellipse cx="65.3947" cy="602.77" fill="#ADD1B2" rx="11" ry="11" style="stroke:#181818;stroke-width:1;"/><path d="M67.8678,608.9131 Q67.2868,609.2119 66.6476,609.3613 Q66.0085,609.5107 65.3029,609.5107 Q62.7961,609.5107 61.4762,607.8589 Q60.1564,606.207 60.1564,603.0859 Q60.1564,599.9565 61.4762,598.3047 Q62.7961,596.6528 65.3029,596.6528 Q66.0085,596.6528 66.6559,596.8022 Q67.3034,596.9516 67.8678,597.2505 L67.8678,599.9731 Q67.237,599.3921 66.6435,599.1223 Q66.05,598.8525 65.4191,598.8525 Q64.0744,598.8525 63.3896,599.9192 Q62.7047,600.9858 62.7047,603.0859 Q62.7047,605.1777 63.3896,606.2444 Q64.0744,607.311 65.4191,607.311 Q66.05,607.311 66.6435,607.0412 Q67.237,606.7715 67.8678,606.1904 Z " fill="#000000"/><text fill="#000000" font-family="sans-serif" font-size="14" lengthAdjust="spacing" textLength="79.0508" x="85.8947" y="608.061">DomainTrie</text><line style="stroke:#181818;stroke-width:0.5;" x1="8.59" x2="209.7502" y1="618.77" y2="618.77"/><rect fill="none" height="6" style="stroke:#C82930;stroke-width:1;" width="6" x="15.59" y="629.5141"/><text fill="#000000" font-family="sans-serif" font-size="14" lengthAdjust="spacing" textLength="73.2402" x="27.59" y="636.3052">root *node</text><line style="stroke:#181818;stroke-width:0.5;" x1="8.59" x2="209.7502" y1="643.2583" y2="643.2583"/><ellipse cx="18.59" cy="657.0024" fill="#84BE84" rx="3" ry="3" style="stroke:#038048;stroke-width:1;"/><text fill="#000000" font-family="sans-serif" font-size="14" lengthAdjust="spacing" textLength="177.1602" x="27.59" y="660.7934">Insert(domain string) bool</text><ellipse cx="18.59" cy="673.4907" fill="#84BE84" rx="3" ry="3" style="stroke:#038048;stroke-width:1;"/><text fill="#000000" font-family="sans-serif" font-size="14" lengthAdjust="spacing" textLength="45.9307" x="27.59" y="677.2817">Reset()</text></g><!--class node--><g class="entity" data-entity="node" data-source-line="34" data-uid="ent0005" id="entity_node"><rect fill="#F1F1F1" height="80.9766" rx="2.5" ry="2.5" style="stroke:#181818;stroke-width:0.5;" width="204.3428" x="7" y="745.23"/><ellipse cx="87.9717" cy="761.23" fill="#ADD1B2" rx="11" ry="11" style="stroke:#181818;stroke-width:1;"/><path d="M90.4448,767.3731 Q89.8638,767.6719 89.2246,767.8213 Q88.5854,767.9707 87.8799,767.9707 Q85.373,767.9707 84.0532,766.3189 Q82.7334,764.667 82.7334,761.5459 Q82.7334,758.4165 84.0532,756.7647 Q85.373,755.1128 87.8799,755.1128 Q88.5854,755.1128 89.2329,755.2622 Q89.8804,755.4116 90.4448,755.7105 L90.4448,758.4331 Q89.814,757.8521 89.2205,757.5823 Q88.627,757.3125 87.9961,757.3125 Q86.6514,757.3125 85.9666,758.3792 Q85.2817,759.4458 85.2817,761.5459 Q85.2817,763.6377 85.9666,764.7044 Q86.6514,765.771 87.9961,765.771 Q88.627,765.771 89.2205,765.5012 Q89.814,765.2315 90.4448,764.6504 Z " fill="#000000"/><text fill="#000000" font-family="sans-serif" font-size="14" lengthAdjust="spacing" textLength="33.8994" x="108.4717" y="766.521">node</text><line style="stroke:#181818;stroke-width:0.5;" x1="8" x2="210.3428" y1="777.23" y2="777.23"/><rect fill="none" height="6" style="stroke:#C82930;stroke-width:1;" width="6" x="15" y="787.9741"/><text fill="#000000" font-family="sans-serif" font-size="14" lengthAdjust="spacing" textLength="178.3428" x="27" y="794.7652">children map[string]*node</text><rect fill="none" height="6" style="stroke:#C82930;stroke-width:1;" width="6" x="15" y="804.4624"/><text fill="#000000" font-family="sans-serif" font-size="14" lengthAdjust="spacing" textLength="59.2129" x="27" y="811.2534">leaf bool</text><line style="stroke:#181818;stroke-width:0.5;" x1="8" x2="210.3428" y1="818.2066" y2="818.2066"/></g><!--class router_GeoSite--><g class="entity" data-entity="router_GeoSite" data-source-line="39" data-uid="ent0006" id="entity_router_GeoSite"><rect fill="#F1F1F1" height="48" rx="2.5" ry="2.5" style="stroke:#181818;stroke-width:0.5;" width="131.9209" x="246.21" y="611.5"/><ellipse cx="261.21" cy="627.5" fill="#ADD1B2" rx="11" ry="11" style="stroke:#181818;stroke-width:1;"/><path d="M263.6831,633.6431 Q263.1021,633.9419 262.4629,634.0913 Q261.8238,634.2407 261.1182,634.2407 Q258.6114,634.2407 257.2915,632.5889 Q255.9717,630.937 255.9717,627.8159 Q255.9717,624.6865 257.2915,623.0347 Q258.6114,621.3828 261.1182,621.3828 Q261.8238,621.3828 262.4712,621.5322 Q263.1187,621.6816 263.6831,621.9805 L263.6831,624.7031 Q263.0523,624.1221 262.4588,623.8523 Q261.8653,623.5825 261.2344,623.5825 Q259.8897,623.5825 259.2049,624.6492 Q258.5201,625.7158 258.5201,627.8159 Q258.5201,629.9077 259.2049,630.9744 Q259.8897,632.041 261.2344,632.041 Q261.8653,632.041 262.4588,631.7712 Q263.0523,631.5015 263.6831,630.9204 Z " fill="#000000"/><text fill="#000000" font-family="sans-serif" font-size="14" lengthAdjust="spacing" textLength="99.9209" x="275.21" y="632.791">router_GeoSite</text><line style="stroke:#181818;stroke-width:0.5;" x1="247.21" x2="377.1309" y1="643.5" y2="643.5"/><line style="stroke:#181818;stroke-width:0.5;" x1="247.21" x2="377.1309" y1="651.5" y2="651.5"/></g><!--class router_GeoSiteList--><g class="entity" data-entity="router_GeoSiteList" data-source-line="40" data-uid="ent0007" id="entity_router_GeoSiteList"><rect fill="#F1F1F1" height="48" rx="2.5" ry="2.5" style="stroke:#181818;stroke-width:0.5;" width="155.8057" x="449.27" y="346.35"/><ellipse cx="464.27" cy="362.35" fill="#ADD1B2" rx="11" ry="11" style="stroke:#181818;stroke-width:1;"/><path d="M466.7431,368.4931 Q466.1621,368.7919 465.5229,368.9413 Q464.8838,369.0907 464.1782,369.0907 Q461.6714,369.0907 460.3515,367.4389 Q459.0317,365.787 459.0317,362.6659 Q459.0317,359.5365 460.3515,357.8847 Q461.6714,356.2328 464.1782,356.2328 Q464.8838,356.2328 465.5312,356.3822 Q466.1787,356.5316 466.7431,356.8305 L466.7431,359.5531 Q466.1123,358.9721 465.5188,358.7023 Q464.9253,358.4325 464.2944,358.4325 Q462.9497,358.4325 462.2649,359.4992 Q461.5801,360.5658 461.5801,362.6659 Q461.5801,364.7577 462.2649,365.8244 Q462.9497,366.891 464.2944,366.891 Q464.9253,366.891 465.5188,366.6212 Q466.1123,366.3515 466.7431,365.7704 Z " fill="#000000"/><text fill="#000000" font-family="sans-serif" font-size="14" lengthAdjust="spacing" textLength="123.8057" x="478.27" y="367.641">router_GeoSiteList</text><line style="stroke:#181818;stroke-width:0.5;" x1="450.27" x2="604.0757" y1="378.35" y2="378.35"/><line style="stroke:#181818;stroke-width:0.5;" x1="450.27" x2="604.0757" y1="386.35" y2="386.35"/></g><!--reverse link ListInfoMap to ListInfo--><g class="link" data-entity-1="ListInfoMap" data-entity-2="ListInfo" data-source-line="42" data-uid="lnk8" id="link_ListInfoMap_ListInfo"><path codeLine="42" d="M323.526,164.6295 C310.726,187.9495 301.87,204.09 287.37,230.52" fill="none" id="ListInfoMap-backto-ListInfo" style="stroke:#181818;stroke-width:1;"/><polygon fill="#181818" points="329.3,154.11,322.9065,157.4451,323.526,164.6295,329.9195,161.2944,329.3,154.11" style="stroke:#181818;stroke-width:1;"/><text fill="#000000" font-family="sans-serif" font-size="13" lengthAdjust="spacing" textLength="53.2061" x="309.97" y="197.4984">contains</text><text fill="#000000" font-family="sans-serif" font-size="13" lengthAdjust="spacing" textLength="8.2202" x="317.1295" y="174.4273">1</text><text fill="#000000" font-family="sans-serif" font-size="13" lengthAdjust="spacing" textLength="6.2651" x="285.3801" y="220.0399">*</text></g><!--link ListInfo to DomainTrie--><g class="link" data-entity-1="ListInfo" data-entity-2="DomainTrie" data-source-line="43" data-uid="lnk9" id="link_ListInfo_DomainTrie"><path codeLine="43" d="M157.33,510.25 C146.7,537.68 138.4093,559.0859 129.9593,580.8759" fill="none" id="ListInfo-to-DomainTrie" style="stroke:#181818;stroke-width:1;"/><polygon fill="#181818" points="127.79,586.47,134.7734,579.5251,129.5978,581.8083,127.3146,576.6326,127.79,586.47" style="stroke:#181818;stroke-width:1;"/><text fill="#000000" font-family="sans-serif" font-size="13" lengthAdjust="spacing" textLength="28.5645" x="146.08" y="553.3384">uses</text></g><!--reverse link DomainTrie to node--><g class="link" data-entity-1="DomainTrie" data-entity-2="node" data-source-line="44" data-uid="lnk10" id="link_DomainTrie_node"><path codeLine="44" d="M109.17,696.62 C109.17,716.07 109.17,726.24 109.17,744.77" fill="none" id="DomainTrie-backto-node" style="stroke:#181818;stroke-width:1;"/><polygon fill="#181818" points="109.17,684.62,105.17,690.62,109.17,696.62,113.17,690.62,109.17,684.62" style="stroke:#181818;stroke-width:1;"/></g><!--link ListInfo to router_GeoSite--><g class="link" data-entity-1="ListInfo" data-entity-2="router_GeoSite" data-source-line="45" data-uid="lnk11" id="link_ListInfo_router_GeoSite"><path codeLine="45" d="M264.48,510.25 C279.56,549.54 292.1617,582.3478 301.1617,605.8178" fill="none" id="ListInfo-to-router_GeoSite" style="stroke:#181818;stroke-width:1;"/><polygon fill="#181818" points="303.31,611.42,303.8224,601.5845,301.5198,606.7515,296.3528,604.4488,303.31,611.42" style="stroke:#181818;stroke-width:1;"/><text fill="#000000" font-family="sans-serif" font-size="13" lengthAdjust="spacing" textLength="38.5747" x="283.33" y="553.3384">builds</text></g><!--link ListInfoMap to router_GeoSiteList--><g class="link" data-entity-1="ListInfoMap" data-entity-2="router_GeoSiteList" data-source-line="46" data-uid="lnk12" id="link_ListInfoMap_router_GeoSiteList"><path codeLine="46" d="M409.04,154.11 C443.69,217.24 488.8831,299.5901 511.5231,340.8401" fill="none" id="ListInfoMap-to-router_GeoSiteList" style="stroke:#181818;stroke-width:1;"/><polygon fill="#181818" points="514.41,346.1,513.5863,336.2856,512.0043,341.7168,506.5731,340.1348,514.41,346.1" style="stroke:#181818;stroke-width:1;"/><text fill="#000000" font-family="sans-serif" font-size="13" lengthAdjust="spacing" textLength="69.9702" x="435.02" y="197.4984">aggregates</text></g><!--SRC=[RL9DImCn4BtlhnZsudPb2rvx40HfALgHMl5G5abtfzj0cgn95bl4N-Aly2puRyI_OPBzQDRsc9dtNjwycJFu_Vpw-VWECaQKWbkgz9IlnOoKy1O0d6z9kLnJXdTaYsdSjcrdHgJQ41QLH6z0QKbvCG2KKaZR7JEYDV8hda-GFtBwKk6rs1BAhKJa0HVYNWejek5mE6ZUpC0MkDDURJ9-SaHNUG_-kQsjMelGUdKUAiOM-n8jpBvh0sq5bcdjkj-glHu1Rd3_AcJkoysnm5tfLwwqmQygZVEAkQADqIPOwwJBr3OiSiepLYagU4TfeLtOza7QRheIWbdY1CK3rKx3v9QXKYuNopfEFs9RYBsLzc9lb4u6Fp2ph_RrDuVmksgtW2OsIT6j8952Q8Yvo9iX5KeTvGxKdKWxoHmL6is3cANLCjc6ibmYzxDhLHE6P5sBT4mfJ4JokStcLD6jAF3FExm88KuI2EFmS4WZo0JNngxgi90ab_wW8wWKgi2hM1NdhaVf_szegyfCfNeUZd7ky4P0Ya9YGJIgFm00]--></g></svg>